<svg xmlns="http://www.w3.org/2000/svg" version="1.1" xmlns:xlink="http://www.w3.org/1999/xlink" xmlns:svgjs="http://svgjs.dev/svgjs" width="1500" height="295" viewBox="0 0 1500 295"><g transform="matrix(1,0,0,1,-0.9090909090909918,0.4536006889856594)"><svg viewBox="0 0 396 78" data-background-color="#ffffff" preserveAspectRatio="xMidYMid meet" height="295" width="1500" xmlns="http://www.w3.org/2000/svg" xmlns:xlink="http://www.w3.org/1999/xlink"><g id="tight-bounds" transform="matrix(1,0,0,1,0.2400000000000091,-0.11993509742671904)"><svg viewBox="0 0 395.52 78.23987019485345" height="78.23987019485345" width="395.52"><g><svg viewBox="0 0 452.300537109375 89.471923828125" height="78.23987019485345" width="395.52"><g><svg viewBox="0 0 452.300537109375 89.471923828125" height="89.471923828125" width="452.300537109375"><g id="textblocktransform"><svg viewBox="0 0 452.300537109375 89.471923828125" height="89.471923828125" width="452.300537109375" id="textblock"><g><svg viewBox="0 0 452.300537109375 89.471923828125" height="89.471923828125" width="452.300537109375"><g><svg><g></g><g></g></svg></g><g><svg><g><svg></svg></g><g></g></svg></g><g id="text-0"><svg viewBox="0 0 452.300537109375 89.471923828125" height="89.471923828125" width="452.300537109375"><g transform="matrix(1,0,0,1,0,17.0870361328125)"><svg width="152.68554687500003" viewBox="2.2 -40.16 152.67000000000002 40.81999999999999" height="40.8203125" data-palette-color="#4d7e3e"><path d="M19.24-33.96L20.61-34.13Q20.85-34.13 20.85-33.59L20.85-33.59 21.48-28.39Q21.58-27.91 21.58-27.77 21.58-27.64 21.2-27.64 20.83-27.64 20.73-27.73 20.63-27.83 20.53-28.06 20.43-28.3 20.3-28.59 20.17-28.88 20.02-29.17L20.02-29.17Q19.51-30.3 18.41-31.4L18.41-31.4Q15.72-33.98 12.35-33.98L12.35-33.98Q10.33-33.98 8.52-32.67 6.71-31.35 6.71-29.55 6.71-27.76 7.39-26.44 8.06-25.12 9.16-24 10.25-22.88 11.67-21.85 13.09-20.83 14.55-19.78L14.55-19.78Q18.43-17.07 20.07-15.14L20.07-15.14Q22.63-12.16 22.85-8.45L22.85-8.45Q22.85-4.3 19.67-1.82 16.48 0.66 12.26 0.66L12.26 0.66Q9.55 0.66 7.95 0.11 6.35-0.44 5.74-0.68 5.13-0.93 4.85-0.93 4.57-0.93 4.49-0.9L4.49-0.9 3.3-0.66Q2.98-0.66 2.91-1.17L2.91-1.17Q2.2-7.23 2.2-7.6 2.2-7.98 2.26-8.12 2.32-8.25 2.59-8.25L2.59-8.25Q3.27-8.25 3.83-6.3L3.83-6.3Q6.4-0.81 12.35-0.81L12.35-0.81Q15.09-0.81 17.03-2.47 18.97-4.13 18.97-6.79L18.97-6.79Q18.97-11.04 13.89-14.7L13.89-14.7Q12.45-15.72 9.74-17.55 7.03-19.38 5.42-21.22L5.42-21.22Q2.91-24.05 2.91-27.53 2.91-31.01 5.68-33.23 8.45-35.45 12.04-35.45L12.04-35.45Q13.89-35.45 16.13-34.81 18.36-34.18 19.24-33.96L19.24-33.96ZM45.92-19.7L45.92-19.7Q45.92-17.99 43.94-17.99L43.94-17.99Q42.94-17.99 42.25-18.57 41.55-19.14 41.17-19.54 40.79-19.95 40.38-20.29L40.38-20.29Q38.62-21.73 36.09-20.61 33.57-19.48 32.2-15.82L32.2-15.82Q31.44-13.79 31.44-11.79L31.44-11.79Q31.44-7.5 33.4-4.77 35.35-2.05 39.38-2.05L39.38-2.05Q42.38-2.05 44.77-4.74L44.77-4.74Q45.51-5.54 45.65-5.54 45.8-5.54 45.97-5.4 46.14-5.25 46.14-4.97 46.14-4.69 45.99-4.54L45.99-4.54Q42.26 0.66 36.59 0.66L36.59 0.66Q32.49 0.66 29.87-2.39 27.24-5.44 27.24-9.38L27.24-9.38Q27.27-16.65 30.76-19.85L30.76-19.85Q33.84-22.66 39.52-22.66L39.52-22.66Q43.04-22.66 44.19-21.95 45.33-21.24 45.8-20.17L45.8-20.17Q45.92-19.92 45.92-19.7ZM56.17-39.58L56.17-18.9Q56.17-18.31 56.34-18.31 56.51-18.31 56.59-18.4 56.66-18.48 57.61-19.53L57.61-19.53Q60.37-22.61 63.2-22.61L63.2-22.61Q66.91-22.61 68.65-20.95L68.65-20.95Q70.77-18.85 70.77-13.89L70.77-13.89 70.77-3.71Q70.77-1.32 73.41-0.93L73.41-0.93Q74.56-0.78 74.56-0.42 74.56-0.05 74.31 0L74.31 0 63.42 0Q63.18-0.05 63.18-0.34L63.18-0.34Q63.18-0.78 64.33-0.93L64.33-0.93Q66.96-1.32 66.96-3.71L66.96-3.71 66.96-13.65Q66.96-17.24 66.45-18.31L66.45-18.31Q65.47-20.46 62.37-20.46L62.37-20.46Q60.47-20.46 58.32-18.84 56.17-17.21 56.17-15.26L56.17-15.26 56.17-3.71Q56.17-1.32 58.81-0.93L58.81-0.93Q59.96-0.78 59.96-0.42 59.96-0.05 59.71 0L59.71 0 48.82 0Q48.58-0.05 48.58-0.34L48.58-0.34Q48.58-0.78 49.73-0.93L49.73-0.93Q52.36-1.32 52.36-3.71L52.36-3.71 52.36-34.16Q52.36-35.18 51.24-35.57L51.24-35.57Q50.75-35.74 50.19-35.85 49.63-35.96 49.3-36.06 48.97-36.16 48.88-36.24 48.8-36.33 48.8-36.61 48.8-36.89 49.16-37.08L49.16-37.08 55.39-40.01Q55.68-40.16 55.76-40.16L55.76-40.16Q56.17-40.16 56.17-39.58L56.17-39.58ZM77.12-10.97Q77.12-15.77 80.52-19.23 83.93-22.68 88.69-22.68 93.45-22.68 96.97-19.32 100.48-15.97 100.48-11.04 100.48-6.1 97.15-2.72 93.82 0.66 88.79 0.66 83.76 0.66 80.44-2.76 77.12-6.18 77.12-10.97ZM83.2-4.69L83.2-4.69Q85.59-0.66 89.71-0.66L89.71-0.66Q92.91-0.66 94.61-3.22 96.31-5.79 96.31-9.52 96.31-13.26 93.93-17.19 91.55-21.12 87.52-21.12L87.52-21.12Q84.56-21.12 82.87-18.57 81.17-16.02 81.17-12.1 81.17-8.18 83.2-4.69ZM113.03-0.93L113.03-0.93Q114.17-0.78 114.17-0.34L114.17-0.34Q114.17-0.05 113.93 0L113.93 0 103.04 0Q102.8-0.05 102.8-0.34L102.8-0.34Q102.8-0.78 103.95-0.93L103.95-0.93Q106.58-1.32 106.58-3.71L106.58-3.71 106.58-34.16Q106.58-35.18 105.46-35.57L105.46-35.57Q104.97-35.74 104.41-35.85 103.85-35.96 103.52-36.06 103.19-36.16 103.1-36.24 103.02-36.33 103.02-36.61 103.02-36.89 103.38-37.08L103.38-37.08 109.61-40.01Q109.9-40.16 109.98-40.16L109.98-40.16Q110.39-40.16 110.39-39.58L110.39-39.58 110.39-3.71Q110.39-1.32 113.03-0.93ZM131.82-4.03Q131.82-3.39 132.42-3.02 133.02-2.64 133.8-2.64 134.58-2.64 135.11-3.04 135.63-3.44 135.83-3.44 136.02-3.44 136.02-2.92 136.02-2.39 135.53-2.03L135.53-2.03Q131.87 0.66 130.58 0.66L130.58 0.66Q129.02 0.66 128.04-2.59L128.04-2.59Q127.97-2.83 127.92-2.81L127.92-2.81Q124.89-0.54 124.11-0.07L124.11-0.07Q122.11 1.07 120.09 0.29 118.08-0.49 117.18-2.29L117.18-2.29Q116.74-3.22 116.74-4.27L116.74-4.27Q116.74-6.35 118.27-7.57 119.81-8.79 124.13-9.91L124.13-9.91Q125.6-10.3 126.75-10.91 127.89-11.52 127.95-11.69 128.01-11.87 128.01-12.01L128.01-12.01 128.01-16.7Q128.01-19.46 125.87-20.58L125.87-20.58Q125.16-20.95 124.17-20.95 123.18-20.95 122.17-20.17 121.15-19.38 121.15-17.94L121.15-17.94 121.28-16.99Q121.13-16.7 119.52-16.02 117.91-15.33 117.66-15.28L117.66-15.28Q117.27-15.28 117.27-16.22 117.27-17.16 117.83-18.31 118.4-19.46 119.42-20.41L119.42-20.41Q121.81-22.63 124.89-22.63 127.97-22.63 129.89-20.94 131.82-19.24 131.82-16.89L131.82-16.89 131.82-4.03ZM120.57-4.74Q120.57-3.56 121.47-2.7 122.38-1.83 123.53-1.83 124.69-1.83 126.35-2.82 128.01-3.81 128.01-4.86L128.01-4.86 128.01-9.81Q128.01-10.08 127.89-10.08 127.77-10.08 127.72-10.06L127.72-10.06 122.06-7.42Q121.18-6.79 120.87-6.35 120.57-5.91 120.57-4.74ZM153.18-17.5L153.18-17.5Q152.89-17.55 152.33-17.82L152.33-17.82Q150.3-18.75 149.15-18.75 148.01-18.75 146.75-17.32 145.49-15.89 145.49-14.75L145.49-14.75 145.49-3.71Q145.49-1.88 147.62-1.27L147.62-1.27Q148.54-1.03 149.35-0.92 150.16-0.81 150.39-0.71 150.62-0.61 150.62-0.33 150.62-0.05 150.38 0L150.38 0 138.14 0Q137.9-0.05 137.9-0.34L137.9-0.34Q137.9-0.78 139.05-0.93L139.05-0.93Q141.68-1.32 141.68-3.71L141.68-3.71 141.68-16.63Q141.68-17.65 140.56-18.04L140.56-18.04Q140.07-18.21 139.51-18.32 138.95-18.43 138.62-18.53 138.29-18.63 138.21-18.71 138.12-18.8 138.12-19.08 138.12-19.36 138.49-19.56L138.49-19.56 144.71-22.49Q145-22.63 145.08-22.63L145.08-22.63Q145.49-22.63 145.49-22.05L145.49-22.05 145.49-18.09Q145.49-17.8 145.64-17.8L145.64-17.8Q145.83-17.8 146.64-18.95L146.64-18.95Q148.96-22.19 150.47-22.19L150.47-22.19Q151.33-22.19 153.1-21.51 154.87-20.83 154.87-20.36L154.87-20.36Q154.87-19.8 154.31-18.65 153.74-17.5 153.18-17.5Z" opacity="1" transform="matrix(1,0,0,1,0,0)" fill="#4d7e3e" class="undefined-yy-0"></path></svg></g><g><svg xmlns="http://www.w3.org/2000/svg" xmlns:xlink="http://www.w3.org/1999/xlink" version="1.1" x="173.80932617187503" y="0" viewBox="10 10 80 80" style="enable-background:new 0 0 100 100;" xml:space="preserve" height="89.471923828125" width="89.471923828125" class="icon-cg-0" data-fill-palette-color="accent" id="cg-0"><path d="M11 88c-0.552 0-1 0.448-1 1s0.448 1 1 1h78c0.552 0 1-0.448 1-1s-0.448-1-1-1h-9.474V73.786h4.989C87.539 73.786 90 71.325 90 68.3V22.842c0-3.024-2.461-5.485-5.485-5.486h-4.989V14.731c0-2.609-2.037-4.731-4.54-4.731h-0.589c-2.503 0-4.54 2.122-4.54 4.731v2.625H30.143V14.731C30.143 12.122 28.106 10 25.603 10h-0.589c-2.503 0-4.54 2.122-4.54 4.731v2.625h-4.989C12.461 17.356 10 19.817 10 22.842V68.3c0 3.024 2.461 5.485 5.485 5.486h4.989V88H11zM69.857 73.786V88H30.143V73.786H69.857zM77.526 88h-5.669V73.786h5.669V88zM71.857 14.731c0-1.506 1.14-2.731 2.54-2.731h0.589c1.4 0 2.54 1.225 2.54 2.731v2.625h-5.669V14.731zM22.474 14.731c0-1.506 1.14-2.731 2.54-2.731h0.589c1.4 0 2.54 1.225 2.54 2.731v2.625h-5.669V14.731zM12 68.3V22.842c0-1.922 1.563-3.485 3.485-3.486h69.03C86.437 19.356 88 20.92 88 22.842V68.3c0 1.922-1.563 3.485-3.485 3.486H15.485C13.563 71.786 12 70.222 12 68.3zM22.474 73.786h5.669V88h-5.669V73.786z" fill="#4d7e3e" data-fill-palette-color="accent"></path><path d="M66.109 48.606c-0.391-0.391-1.023-0.391-1.414 0l-3.57 3.571c-0.391 0.39-0.391 1.023 0 1.414s1.023 0.391 1.414 0l1.95-1.95c-0.718 7.063-6.471 12.645-13.601 13.129V42.52h5.58c0.552 0 1-0.448 1-1s-0.448-1-1-1h-5.58v-3.419c2.846-0.479 5.023-2.953 5.024-5.933 0-3.321-2.702-6.023-6.024-6.023s-6.023 2.702-6.023 6.023c0 2.98 2.177 5.455 5.023 5.933v3.419h-5.579c-0.552 0-1 0.448-1 1s0.448 1 1 1h5.579v22.25c-7.129-0.484-12.882-6.066-13.6-13.129l1.949 1.95c0.195 0.195 0.451 0.293 0.707 0.293s0.512-0.098 0.707-0.293c0.391-0.391 0.391-1.023 0-1.414l-3.57-3.571c-0.391-0.391-1.023-0.391-1.414 0l-3.57 3.571c-0.391 0.391-0.391 1.023 0 1.414s1.023 0.391 1.414 0l1.785-1.785c0.836 8.418 7.958 15.015 16.592 15.015 8.635 0 15.756-6.597 16.593-15.015l1.785 1.785c0.195 0.195 0.451 0.293 0.707 0.293s0.512-0.098 0.707-0.293c0.391-0.391 0.391-1.023 0-1.414L66.109 48.606zM45.865 31.168c0-2.218 1.805-4.023 4.023-4.023 2.219 0 4.023 1.805 4.024 4.023 0 2.219-1.805 4.023-4.024 4.023C47.67 35.191 45.865 33.387 45.865 31.168z" fill="#4d7e3e" data-fill-palette-color="accent"></path></svg></g><g transform="matrix(1,0,0,1,284.405029296875,17.087036132812504)"><svg width="167.8955078125" viewBox="2.2 -40.16 167.88000000000002 55.3" height="55.29785156249999" data-palette-color="#4d7e3e"><path d="M19.24-33.96L20.61-34.13Q20.85-34.13 20.85-33.59L20.85-33.59 21.48-28.39Q21.58-27.91 21.58-27.77 21.58-27.64 21.2-27.64 20.83-27.64 20.73-27.73 20.63-27.83 20.53-28.06 20.43-28.3 20.3-28.59 20.17-28.88 20.02-29.17L20.02-29.17Q19.51-30.3 18.41-31.4L18.41-31.4Q15.72-33.98 12.35-33.98L12.35-33.98Q10.33-33.98 8.52-32.67 6.71-31.35 6.71-29.55 6.71-27.76 7.39-26.44 8.06-25.12 9.16-24 10.25-22.88 11.67-21.85 13.09-20.83 14.55-19.78L14.55-19.78Q18.43-17.07 20.07-15.14L20.07-15.14Q22.63-12.16 22.85-8.45L22.85-8.45Q22.85-4.3 19.67-1.82 16.48 0.66 12.26 0.66L12.26 0.66Q9.55 0.66 7.95 0.11 6.35-0.44 5.74-0.68 5.13-0.93 4.85-0.93 4.57-0.93 4.49-0.9L4.49-0.9 3.3-0.66Q2.98-0.66 2.91-1.17L2.91-1.17Q2.2-7.23 2.2-7.6 2.2-7.98 2.26-8.12 2.32-8.25 2.59-8.25L2.59-8.25Q3.27-8.25 3.83-6.3L3.83-6.3Q6.4-0.81 12.35-0.81L12.35-0.81Q15.09-0.81 17.03-2.47 18.97-4.13 18.97-6.79L18.97-6.79Q18.97-11.04 13.89-14.7L13.89-14.7Q12.45-15.72 9.74-17.55 7.03-19.38 5.42-21.22L5.42-21.22Q2.91-24.05 2.91-27.53 2.91-31.01 5.68-33.23 8.45-35.45 12.04-35.45L12.04-35.45Q13.89-35.45 16.13-34.81 18.36-34.18 19.24-33.96L19.24-33.96ZM43.45 0.05L43.45-2.15Q43.33-2.56 43.14-2.43 42.94-2.29 41.55-1.59L41.55-1.59Q36.98 0.68 33.93 0.68 30.88 0.68 29.54-1.27L29.54-1.27Q29.05-2 29.05-3.08L29.05-3.08 29.05-17.97Q28.98-18.68 28.42-19.19L28.42-19.19Q27.66-19.82 26.84-19.87 26.02-19.92 26.02-20.37 26.02-20.83 26.41-20.92L26.41-20.92 32-22.53Q32.3-22.63 32.58-22.63 32.86-22.63 32.86-22.22L32.86-22.22 32.86-5.83Q32.86-4.13 34.37-3.2 35.89-2.27 38.24-2.27 40.6-2.27 42.48-3.71L42.48-3.71Q43.06-4.17 43.45-4.74L43.45-4.74 43.45-17.97Q43.38-18.68 42.82-19.19L42.82-19.19Q42.06-19.82 41.25-19.87 40.43-19.92 40.43-20.37 40.43-20.83 40.82-20.92L40.82-20.92 46.41-22.53Q46.7-22.63 46.98-22.63 47.26-22.63 47.26-22.14L47.26-22.14 47.26-4.81Q47.39-3.74 47.87-3.27 48.36-2.81 49.46-2.81L49.46-2.81 50.88-2.91Q51.02-2.91 51.02-2.62 51.02-2.34 50.66-2.17L50.66-2.17 44.16 0.51Q43.87 0.66 43.66 0.66 43.45 0.66 43.45 0.05L43.45 0.05ZM72.58-2.56L72.58-2.56Q69.21 0.66 65.01 0.66L65.01 0.66Q63.5 0.66 60.88 0.1L60.88 0.1Q60.47 0.1 60.43 0.39 60.4 0.68 60.37 1L60.37 1 60.37 11.43Q60.37 13.26 62.5 13.87L62.5 13.87Q63.42 14.11 64.23 14.22 65.03 14.33 65.27 14.43 65.5 14.53 65.5 14.81 65.5 15.09 65.25 15.14L65.25 15.14 53.02 15.14Q52.78 15.09 52.78 14.79L52.78 14.79Q52.78 14.36 53.93 14.21L53.93 14.21Q56.56 13.82 56.56 11.43L56.56 11.43 56.56-17.85Q56.56-18.87 55.44-19.26L55.44-19.26Q54.95-19.43 54.39-19.54 53.83-19.65 53.5-19.75 53.17-19.85 53.08-19.93 53-20.02 53-20.3 53-20.58 53.36-20.78L53.36-20.78 59.59-23.75Q59.79-23.85 59.98-23.85L59.98-23.85Q60.37-23.85 60.37-23.27L60.37-23.27 60.37-20.17Q60.37-19.9 60.65-19.9 60.93-19.9 62.01-20.61L62.01-20.61Q65.11-22.61 68.45-22.61L68.45-22.61Q70.8-22.61 72.75-20.7L72.75-20.7Q75.31-18.21 76.17-13.77L76.17-13.77Q76.41-12.5 76.41-11.07 76.41-9.64 75.95-8.06L75.95-8.06Q75.02-4.91 72.58-2.56ZM65.6-20.07L65.6-20.07Q62.28-20.07 60.37-18.16L60.37-18.16 60.37-4.44Q60.37-3.22 60.79-2.86L60.79-2.86Q61.86-1.93 64.08-1.42L64.08-1.42Q68.48-0.42 70.92-3.52L70.92-3.52Q72.65-5.74 72.65-8.89L72.65-8.89Q72.65-15.01 69.89-18.07L69.89-18.07Q68.23-19.92 65.6-20.07ZM99.19-2.56L99.19-2.56Q95.82 0.66 91.62 0.66L91.62 0.66Q90.1 0.66 87.49 0.1L87.49 0.1Q87.08 0.1 87.04 0.39 87 0.68 86.98 1L86.98 1 86.98 11.43Q86.98 13.26 89.1 13.87L89.1 13.87Q90.03 14.11 90.84 14.22 91.64 14.33 91.87 14.43 92.11 14.53 92.11 14.81 92.11 15.09 91.86 15.14L91.86 15.14 79.63 15.14Q79.39 15.09 79.39 14.79L79.39 14.79Q79.39 14.36 80.53 14.21L80.53 14.21Q83.17 13.82 83.17 11.43L83.17 11.43 83.17-17.85Q83.17-18.87 82.05-19.26L82.05-19.26Q81.56-19.43 81-19.54 80.44-19.65 80.11-19.75 79.78-19.85 79.69-19.93 79.61-20.02 79.61-20.3 79.61-20.58 79.97-20.78L79.97-20.78 86.2-23.75Q86.39-23.85 86.59-23.85L86.59-23.85Q86.98-23.85 86.98-23.27L86.98-23.27 86.98-20.17Q86.98-19.9 87.26-19.9 87.54-19.9 88.62-20.61L88.62-20.61Q91.72-22.61 95.06-22.61L95.06-22.61Q97.4-22.61 99.36-20.7L99.36-20.7Q101.92-18.21 102.78-13.77L102.78-13.77Q103.02-12.5 103.02-11.07 103.02-9.64 102.56-8.06L102.56-8.06Q101.63-4.91 99.19-2.56ZM92.2-20.07L92.2-20.07Q88.88-20.07 86.98-18.16L86.98-18.16 86.98-4.44Q86.98-3.22 87.39-2.86L87.39-2.86Q88.47-1.93 90.69-1.42L90.69-1.42Q95.09-0.42 97.53-3.52L97.53-3.52Q99.26-5.74 99.26-8.89L99.26-8.89Q99.26-15.01 96.5-18.07L96.5-18.07Q94.84-19.92 92.2-20.07ZM116.42-0.93L116.42-0.93Q117.57-0.78 117.57-0.34L117.57-0.34Q117.57-0.05 117.32 0L117.32 0 106.44 0Q106.19-0.05 106.19-0.34L106.19-0.34Q106.19-0.78 107.34-0.93L107.34-0.93Q109.98-1.32 109.98-3.71L109.98-3.71 109.98-34.16Q109.98-35.18 108.85-35.57L108.85-35.57Q108.36-35.74 107.8-35.85 107.24-35.96 106.91-36.06 106.58-36.16 106.5-36.24 106.41-36.33 106.41-36.61 106.41-36.89 106.78-37.08L106.78-37.08 113-40.01Q113.3-40.16 113.37-40.16L113.37-40.16Q113.78-40.16 113.78-39.58L113.78-39.58 113.78-3.71Q113.78-1.32 116.42-0.93ZM131.02 0L120.13 0Q119.88-0.05 119.88-0.34L119.88-0.34Q119.88-0.78 121.03-0.93L121.03-0.93Q123.67-1.32 123.67-3.71L123.67-3.71 123.67-16.63Q123.67-17.65 122.55-18.04L122.55-18.04Q122.06-18.21 121.5-18.32 120.93-18.43 120.61-18.53 120.28-18.63 120.19-18.71 120.1-18.8 120.1-19.08 120.1-19.36 120.47-19.56L120.47-19.56 126.7-22.49Q126.99-22.63 127.06-22.63L127.06-22.63Q127.48-22.63 127.48-22.05L127.48-22.05 127.48-3.71Q127.48-1.32 130.11-0.93L130.11-0.93Q131.26-0.78 131.26-0.42 131.26-0.05 131.02 0L131.02 0ZM125.22-29.49Q124.21-29.49 123.44-30.13 122.67-30.76 122.67-31.9 122.67-33.03 123.4-33.69 124.13-34.35 125.15-34.35 126.16-34.35 126.86-33.57 127.55-32.79 127.55-31.88 127.55-30.98 126.89-30.24 126.23-29.49 125.22-29.49ZM152.28-12.87L138.12-12.87Q137.7-12.87 137.7-11.08L137.7-11.08Q137.7-7.3 139.95-4.74 142.2-2.17 145.53-2.17 148.86-2.17 151.94-5.05L151.94-5.05Q151.99-5.1 152.06-5.1L152.06-5.1 152.18-5.1Q152.33-5.1 152.46-4.87 152.6-4.64 152.72-4.57L152.72-4.57Q149.89-1.12 146.05 0.2L146.05 0.2Q144.74 0.66 143.08 0.66 141.42 0.66 139.71-0.26 138-1.17 136.78-2.66L136.78-2.66Q134.19-5.76 134.19-10.39 134.19-15.01 137.01-18.82 139.83-22.63 144.76-22.63L144.76-22.63Q148.3-22.63 150.55-19.47 152.79-16.31 152.79-13.92L152.79-13.92Q152.79-12.87 152.28-12.87L152.28-12.87ZM138.39-15.5L138.39-15.21Q138.39-14.75 138.83-14.75L138.83-14.75 148.03-14.75Q148.67-14.75 148.67-15.5L148.67-15.5Q148.67-17.26 147.09-19.1 145.52-20.95 143.64-20.95L143.64-20.95Q141.81-20.95 140.3-19.29 138.8-17.63 138.39-15.5L138.39-15.5ZM168.73-18.95L168.73-16.7Q168.73-16.16 168.33-16.16 167.93-16.16 167.71-16.75L167.71-16.75Q167.12-18.36 165.96-19.6 164.8-20.85 163.09-20.85L163.09-20.85Q160.85-20.85 160.07-18.6L160.07-18.6Q159.82-17.85 159.82-17.04 159.82-16.24 160.85-15.25 161.87-14.26 164.22-12.89 166.56-11.52 167.63-10.57L167.63-10.57Q170.08-8.4 170.08-5.54 170.08-2.69 167.98-1.01 165.88 0.66 163.09 0.66L163.09 0.66Q161.6 0.66 160.4 0.26 159.19-0.15 159-0.15 158.82-0.15 158.42 0.26 158.01 0.66 157.77 0.66L157.77 0.66 157.36 0.66Q157.21 0.66 156.99-1.98 156.77-4.61 156.77-5.1 156.77-5.59 156.86-5.64 156.94-5.69 157.14-5.69 157.33-5.69 157.47-5.57 157.6-5.44 157.7-5.26 157.8-5.08 157.86-4.88 157.92-4.69 158.16-4.15L158.16-4.15Q159.82-0.61 163.29-0.61L163.29-0.61Q164.83-0.61 165.75-1.75 166.68-2.88 166.68-4.27 166.68-5.66 165.95-6.62 165.22-7.57 164.13-8.35 163.04-9.13 161.77-9.86L161.77-9.86Q156.84-12.74 156.84-16.24L156.84-16.24Q156.84-18.85 159.09-20.74 161.34-22.63 163.7-22.63 166.07-22.63 167.21-22.12 168.34-21.61 168.54-21.25 168.73-20.9 168.73-18.95L168.73-18.95Z" opacity="1" transform="matrix(1,0,0,1,0,0)" fill="#4d7e3e" class="undefined-yy-1"></path></svg></g></svg></g></svg></g></svg></g></svg></g></svg></g><defs></defs></svg><rect width="395.52" height="78.23987019485345" fill="none" stroke="none" visibility="hidden"></rect></g></svg></g></svg>